# xmcd
# Track frame offsets:
# 150
# 742
# 30045
# 51557
# 66427
# 90032
# 115132
# 129902
# 149092
# 172637
# 190162
#
# Disc length: 2745 seconds
# Revision: 0
# Processed by: cddbd v1.4PL0 Copyright (c) Steve Scherf et al.
# Submitted via: VisiTrax 2.9.5.181 - For more info visit www.synapsa.com
#
DISCID=850ab70b
DTITLE=Various Artist - Slow Jams the Timeless Collection Vol 2
DYEAR=2002
DGENRE=Soul
TTITLE0=Various Artist - Intro
TTITLE1=The Isleys - Let me Down Easy
TTITLE2=Patti Labelle - If Only You Knew
TTITLE3=Ronnit and Debra Laws - Very Special
TTITLE4=Con Funk Shun - Love's Train
TTITLE5=The O'Jays - Cry Together
TTITLE6=The Unifics - The Beginning of my end
TTITLE7=Enchantment - Where do we go from here
TTITLE8=Teena Marie - Dear Lover
TTITLE9=Shirley Brown - Woman to Woman
TTITLE10=Barbara Mason - From His Woman to YOu
EXTD=
EXTT0=
EXTT1=
EXTT2=
EXTT3=
EXTT4=
EXTT5=
EXTT6=
EXTT7=
EXTT8=
EXTT9=
EXTT10=
PLAYORDER=
